<svg width="548" height="541" xmlns="http://www.w3.org/2000/svg" xmlns:xlink="http://www.w3.org/1999/xlink" overflow="hidden"><defs><clipPath id="clip0"><rect x="778" y="504" width="548" height="541"/></clipPath></defs><g clip-path="url(#clip0)" transform="translate(-778 -504)"><path d="M173.581 539.939C76.9786 539.939-1.44342 460.559 0.0368072 363.561L0.0368072 363.561C1.48961 268.263 80.97 192.58 176.215 192.58L176.215 192.58 373.448 192.58C384.717 192.58 393.727 182.683 392.242 171.122L392.242 171.122C391.014 161.561 382.421 154.65 372.788 154.65L372.788 154.65 169.149 154.65C112.876 154.65 62.272 120.371 41.3742 68.0889L41.3742 68.0889 14.1293-0.0606625 370.813-0.0606625C466.063-0.0606625 545.543 75.6234 546.996 170.921L546.996 170.921C548.472 267.919 470.05 347.295 373.448 347.295L373.448 347.295 173.581 347.295C162.311 347.295 153.311 357.191 154.791 368.752L154.791 368.752C156.019 378.313 164.617 385.219 174.245 385.219L174.245 385.219 314.691 385.219C370.964 385.219 421.568 419.503 442.466 471.781L442.466 471.781 469.706 539.939Z" fill="#02365F" fill-rule="evenodd" transform="matrix(1 0 0 -1 778 1044)"/><path d="M176.104 250.913C81.6712 250.913 2.688 176.505 0.0830521 82.1243L0.0830521 82.1243C-0.737719 52.5454 5.92992 24.5764 18.2523-0.0873705L18.2523-0.0873705C46.7587 56.9475 105.706 96.2238 173.692 96.2238L173.692 96.2238 314.902 96.2238C371.208 96.2238 421.845 130.502 442.757 182.773L442.757 182.773 470.016 250.913Z" fill="#FD4051" fill-rule="evenodd" transform="matrix(1 0 0 -1 778 755)"/><path d="M358.08 192.971C358.08 192.971 358.864 192.971 360.326 192.907L360.326 192.907C359.799 192.948 359.267 192.971 358.731 192.971L358.731 192.971ZM378.188 176.473C379.673 164.886 370.662 154.971 359.391 154.971L359.391 154.971 155.06 154.971C98.7783 154.971 48.1668 120.628 27.2654 68.248L27.2654 68.248 0.016241-0.0289409 359.391-0.0289409C427.548-0.0289409 486.626 39.5654 515.017 96.9903L515.017 96.9903C465.871 184.605 375.676 192.24 360.326 192.907L360.326 192.907C369.296 192.195 377.028 185.519 378.188 176.473" fill="#038DE8" fill-rule="evenodd" transform="matrix(1 0 0 -1 792 1044)"/></g></svg>